<svg viewBox="0 0 1440 200" xmlns="http://www.w3.org/2000/svg">
  <defs>
    <!-- Enhanced gradient with more contrast -->
    <linearGradient id="waveGrad" x1="0%" y1="0%" x2="0%" y2="100%">
      <stop offset="0%" style="stop-color:#1E40AF;stop-opacity:0" />
      <stop offset="40%" style="stop-color:#2563EB;stop-opacity:0.1" />
      <stop offset="100%" style="stop-color:#3B82F6;stop-opacity:0.2" />
    </linearGradient>

    <!-- Shadow filter for depth -->
    <filter id="waveShadow">
      <feGaussianBlur in="SourceAlpha" stdDeviation="4"/>
      <feOffset dx="0" dy="4" result="offsetblur"/>
      <feFlood flood-color="#000000" flood-opacity="0.15"/>
      <feComposite in2="offsetblur" operator="in"/>
      <feMerge>
        <feMergeNode/>
        <feMergeNode in="SourceGraphic"/>
      </feMerge>
    </filter>
  </defs>

  <!-- Multi-layer wave for depth and contrast -->
  <path d="M 0,80 C 320,120 640,40 960,60 C 1200,80 1380,100 1440,60 L 1440,200 L 0,200 Z"
        fill="url(#waveGrad)"
        opacity="0.5" />

  <path d="M 0,100 C 240,140 480,60 720,80 C 960,100 1200,120 1440,80 L 1440,200 L 0,200 Z"
        fill="url(#waveGrad)"
        opacity="0.7"
        filter="url(#waveShadow)" />

  <path d="M 0,120 C 360,160 720,80 1080,100 C 1260,110 1380,130 1440,120 L 1440,200 L 0,200 Z"
        fill="#ffffff"
        opacity="0.2" />

  <!-- Subtle accent dots for texture -->
  <circle cx="150" cy="100" r="50" fill="#60A5FA" opacity="0.05" />
  <circle cx="1250" cy="90" r="70" fill="#3B82F6" opacity="0.04" />
</svg>