<svg viewBox="0 0 1440 200" xmlns="http://www.w3.org/2000/svg">
  <defs>
    <!-- Blue to gray gradient transition -->
    <linearGradient id="blueToGrayWave" x1="0%" y1="0%" x2="0%" y2="100%">
      <stop offset="0%" style="stop-color:#2563EB;stop-opacity:0" />
      <stop offset="30%" style="stop-color:#1E40AF;stop-opacity:0.08" />
      <stop offset="70%" style="stop-color:#6B7280;stop-opacity:0.12" />
      <stop offset="100%" style="stop-color:#F9FAFB;stop-opacity:0.18" />
    </linearGradient>

    <!-- Shadow for depth -->
    <filter id="blueGrayShadow">
      <feGaussianBlur in="SourceAlpha" stdDeviation="3"/>
      <feOffset dx="0" dy="3" result="offsetblur"/>
      <feFlood flood-color="#000000" flood-opacity="0.08"/>
      <feComposite in2="offsetblur" operator="in"/>
      <feMerge>
        <feMergeNode/>
        <feMergeNode in="SourceGraphic"/>
      </feMerge>
    </filter>
  </defs>

  <!-- Base layer - blue gradient fade -->
  <path d="M 0,80 C 300,110 600,50 900,70 C 1100,85 1350,95 1440,75 L 1440,200 L 0,200 Z"
        fill="url(#blueToGrayWave)"
        opacity="0.4" />

  <!-- Middle layer - transition wave -->
  <path d="M 0,100 C 360,140 720,60 1080,90 C 1260,105 1380,125 1440,100 L 1440,200 L 0,200 Z"
        fill="url(#blueToGrayWave)"
        opacity="0.6"
        filter="url(#blueGrayShadow)" />

  <!-- Top layer - gray blend -->
  <path d="M 0,130 C 240,160 480,90 720,110 C 960,125 1200,140 1440,120 L 1440,200 L 0,200 Z"
        fill="#F9FAFB"
        opacity="0.7" />

  <!-- Subtle accent elements -->
  <circle cx="180" cy="110" r="45" fill="#3B82F6" opacity="0.03" />
  <circle cx="1100" cy="95" r="60" fill="#6B7280" opacity="0.04" />
</svg>