<svg viewBox="0 0 1440 200" xmlns="http://www.w3.org/2000/svg">
  <defs>
    <!-- Blue to red gradient transition -->
    <linearGradient id="blueToRedGradientWave" x1="0%" y1="0%" x2="0%" y2="100%">
      <stop offset="0%" style="stop-color:#2563EB;stop-opacity:0" />
      <stop offset="25%" style="stop-color:#1E40AF;stop-opacity:0.06" />
      <stop offset="60%" style="stop-color:#DC2626;stop-opacity:0.10" />
      <stop offset="100%" style="stop-color:#FEF2F2;stop-opacity:0.16" />
    </linearGradient>

    <!-- Shadow for depth -->
    <filter id="blueRedGradientShadow">
      <feGaussianBlur in="SourceAlpha" stdDeviation="4"/>
      <feOffset dx="0" dy="4" result="offsetblur"/>
      <feFlood flood-color="#000000" flood-opacity="0.08"/>
      <feComposite in2="offsetblur" operator="in"/>
      <feMerge>
        <feMergeNode/>
        <feMergeNode in="SourceGraphic"/>
      </feMerge>
    </filter>
  </defs>

  <!-- Base layer - blue to red gradient fade -->
  <path d="M 0,90 C 320,120 640,60 960,80 C 1200,95 1350,105 1440,85 L 1440,200 L 0,200 Z"
        fill="url(#blueToRedGradientWave)"
        opacity="0.4" />

  <!-- Middle layer - transition wave -->
  <path d="M 0,110 C 240,140 480,70 720,100 C 960,115 1200,130 1440,110 L 1440,200 L 0,200 Z"
        fill="url(#blueToRedGradientWave)"
        opacity="0.6"
        filter="url(#blueRedGradientShadow)" />

  <!-- Top layer - exact red gradient match -->
  <path d="M 0,140 C 360,170 720,100 1080,130 C 1260,140 1380,150 1440,135 L 1440,200 L 0,200 Z"
        fill="#FEF2F2"
        opacity="1" />

  <!-- Enhanced bubble elements with varying sizes -->
  <circle cx="200" cy="120" r="50" fill="#3B82F6" opacity="0.03" />
  <circle cx="1150" cy="105" r="65" fill="#FEF2F2" opacity="0.04" />

  <!-- Additional light bubbles -->
  <circle cx="120" cy="80" r="25" fill="#60A5FA" opacity="0.02" />
  <circle cx="350" cy="60" r="35" fill="#93C5FD" opacity="0.025" />
  <circle cx="580" cy="90" r="20" fill="#FECACA" opacity="0.03" />
  <circle cx="750" cy="70" r="40" fill="#3B82F6" opacity="0.02" />
  <circle cx="920" cy="115" r="30" fill="#F87171" opacity="0.025" />
  <circle cx="1050" cy="65" r="15" fill="#93C5FD" opacity="0.035" />
  <circle cx="1280" cy="95" r="45" fill="#FECACA" opacity="0.02" />

  <!-- Small accent bubbles -->
  <circle cx="80" cy="140" r="12" fill="#FFFFFF" opacity="0.04" />
  <circle cx="280" cy="135" r="18" fill="#FEF2F2" opacity="0.03" />
  <circle cx="450" cy="125" r="22" fill="#FFFFFF" opacity="0.025" />
  <circle cx="650" cy="140" r="16" fill="#FEF2F2" opacity="0.035" />
  <circle cx="850" cy="130" r="28" fill="#FFFFFF" opacity="0.02" />
  <circle cx="1000" cy="145" r="14" fill="#FEF2F2" opacity="0.04" />
  <circle cx="1200" cy="125" r="24" fill="#FFFFFF" opacity="0.025" />
  <circle cx="1350" cy="135" r="19" fill="#FEF2F2" opacity="0.03" />
</svg>