<svg viewBox="0 0 1440 200" xmlns="http://www.w3.org/2000/svg">
  <defs>
    <!-- Top transition gradient -->
    <linearGradient id="topTransitionWave" x1="0%" y1="100%" x2="0%" y2="0%">
      <stop offset="0%" style="stop-color:#F9FAFB;stop-opacity:0.18" />
      <stop offset="30%" style="stop-color:#E5E7EB;stop-opacity:0.12" />
      <stop offset="70%" style="stop-color:#D1D5DB;stop-opacity:0.08" />
      <stop offset="100%" style="stop-color:#6B7280;stop-opacity:0" />
    </linearGradient>

    <!-- Shadow for depth -->
    <filter id="topTransitionShadow">
      <feGaussianBlur in="SourceAlpha" stdDeviation="3"/>
      <feOffset dx="0" dy="-3" result="offsetblur"/>
      <feFlood flood-color="#000000" flood-opacity="0.06"/>
      <feComposite in2="offsetblur" operator="in"/>
      <feMerge>
        <feMergeNode/>
        <feMergeNode in="SourceGraphic"/>
      </feMerge>
    </filter>
  </defs>

  <!-- Inverted waves for top transitions -->
  <path d="M 0,120 C 320,80 640,140 960,110 C 1200,95 1380,85 1440,105 L 1440,0 L 0,0 Z"
        fill="url(#topTransitionWave)"
        opacity="0.5" />

  <path d="M 0,100 C 240,60 480,120 720,90 C 960,75 1200,65 1440,85 L 1440,0 L 0,0 Z"
        fill="url(#topTransitionWave)"
        opacity="0.7"
        filter="url(#topTransitionShadow)" />

  <path d="M 0,70 C 360,30 720,90 1080,60 C 1260,50 1380,40 1440,55 L 1440,0 L 0,0 Z"
        fill="#FFFFFF"
        opacity="0.8" />

  <!-- Subtle accent elements -->
  <circle cx="220" cy="75" r="40" fill="#E5E7EB" opacity="0.04" />
  <circle cx="1050" cy="90" r="55" fill="#D1D5DB" opacity="0.05" />
</svg>